<?xml version="1.0" encoding="UTF-8"?>
<svg version="1.1" xmlns="http://www.w3.org/2000/svg" width="197" height="255">
<path d="M0 0 C65.01 0 130.02 0 197 0 C197 84.15 197 168.3 197 255 C131.99 255 66.98 255 0 255 C0 170.85 0 86.7 0 0 Z " fill="#FAFCFD" transform="translate(0,0)"/>
<path d="M0 0 C7.55004273 2.34210849 7.55004273 2.34210849 24.4375 1.5 C24.4375 40.77 24.4375 80.04 24.4375 120.5 C15.1989806 123.57950647 8.95675352 123.17189325 -0.01953125 119.47265625 C-10.66010095 115.40276093 -21.39968982 117.02432532 -31.5625 121.5 C-32.614375 121.995 -33.66625 122.49 -34.75 123 C-38.52517848 123.67114284 -40.2467312 122.41378072 -43.51171875 120.59375 C-53.25478867 115.39744604 -65.23781889 116.66074819 -75.41796875 119.74609375 C-77.57521815 120.45416564 -77.57521815 120.45416564 -79.5625 121.5 C-85.1725 121.5 -90.7825 121.5 -96.5625 121.5 C-96.5625 82.23 -96.5625 42.96 -96.5625 2.5 C-90.6225 2.17 -84.6825 1.84 -78.5625 1.5 C-74.79958889 0.7416305 -74.79958889 0.7416305 -71.05078125 -0.08203125 C-60.37181956 -1.87582858 -49.86400076 -1.09774892 -40.5625 4.4375 C-37.06295598 6.3557822 -37.06295598 6.3557822 -33.28125 5.81640625 C-31.76991062 4.91971369 -30.28672756 3.97421377 -28.83203125 2.98828125 C-20.56404193 -2.43358438 -9.19523603 -3.35826011 0 0 Z " fill="#FCFAF9" transform="translate(134.5625,70.5)"/>
<path d="M0 0 C65.01 0 130.02 0 197 0 C197 84.15 197 168.3 197 255 C131.99 255 66.98 255 0 255 C0 170.85 0 86.7 0 0 Z M4 5 C3.69934108 6.88406278 3.69934108 6.88406278 3.75111103 9.06955814 C3.74651223 9.92635546 3.74191344 10.78315277 3.73717529 11.66591364 C3.74231885 12.61268817 3.74746241 13.5594627 3.75276184 14.53492737 C3.75034743 15.53640098 3.74793301 16.53787459 3.74544543 17.56969589 C3.73978081 20.94700098 3.74849236 24.32411923 3.75708008 27.70141602 C3.75600789 30.11385144 3.75407015 32.5262866 3.75132751 34.9387207 C3.74697174 40.82365713 3.75193542 46.70854261 3.76117782 52.59346933 C3.77154585 59.44040005 3.77149206 66.28731854 3.77100524 73.13425564 C3.77050428 85.34659571 3.77967546 97.55890961 3.79418945 109.77124023 C3.80828063 121.63387529 3.81536012 133.49648732 3.81469727 145.35913086 C3.81465731 146.08985393 3.81461735 146.82057699 3.81457619 147.57344318 C3.81453583 148.30287689 3.81449548 149.03231059 3.8144539 149.78384835 C3.81376482 163.27201536 3.81964932 176.76017256 3.82860712 190.24833639 C3.83162891 195.0263577 3.83268732 199.80437721 3.83313942 204.58239937 C3.83389105 211.0066505 3.840216 217.43088209 3.85030556 223.85512543 C3.85323869 226.22032713 3.85445429 228.58553164 3.85387802 230.95073509 C3.8533911 234.16453519 3.85900558 237.37826581 3.86628723 240.59205627 C3.86473863 241.54106153 3.86319003 242.49006678 3.8615945 243.46782976 C3.45970958 247.55743177 3.45970958 247.55743177 5 251 C7.41359063 251.09988776 9.79862319 251.13442176 12.21276855 251.12698364 C12.97654171 251.12854363 13.74031486 251.13010362 14.52723265 251.13171089 C17.10606491 251.13572384 19.68483909 251.13253011 22.26367188 251.12939453 C24.10453832 251.13074844 25.94540449 251.13252832 27.78627014 251.13470459 C32.80058768 251.13928014 37.81488474 251.13748886 42.82920265 251.1343255 C48.06448041 251.13180253 53.29975636 251.13413927 58.53503418 251.13571167 C67.32853512 251.13753355 76.12202768 251.13512658 84.91552734 251.13037109 C95.09760253 251.12492844 105.27965769 251.12669108 115.46173239 251.1321975 C124.18696308 251.13672811 132.91218773 251.13737944 141.63741922 251.13475883 C146.85601537 251.13319577 152.07460209 251.13300309 157.29319763 251.13629532 C162.19817993 251.13917328 167.10313629 251.13719974 172.00811577 251.13140106 C173.81376032 251.13007306 175.61940703 251.13046826 177.42505074 251.13266373 C179.87914096 251.13537366 182.33314669 251.13199606 184.78723145 251.12698364 C185.51124382 251.12921436 186.23525619 251.13144509 186.98120832 251.13374341 C190.2727746 251.40518111 190.2727746 251.40518111 193 250 C193.1025194 246.85692689 193.13884259 243.73568305 193.13371277 240.59205627 C193.1371111 239.09218584 193.1371111 239.09218584 193.14057809 237.562015 C193.14694967 234.18399136 193.14608672 230.80600752 193.14526367 227.42797852 C193.14825319 225.01731311 193.15165523 222.60664818 193.15544128 220.19598389 C193.16338408 214.31126173 193.16649684 208.42654904 193.16705366 202.54182262 C193.16752807 197.760683 193.16957903 192.9795467 193.17275429 188.19840813 C193.1815652 174.65675146 193.18617298 161.11510274 193.18542381 147.57344318 C193.18538386 146.84272012 193.1853439 146.11199705 193.18530273 145.35913086 C193.18524141 144.26171511 193.18524141 144.26171511 193.18517885 143.14212935 C193.18477225 131.28068764 193.19434414 119.41927766 193.2084411 107.55784512 C193.22278619 95.39208803 193.22971232 83.22634644 193.22884732 71.06058067 C193.22851471 64.22500548 193.23128998 57.38946355 193.24202538 50.55389595 C193.25205231 44.12800649 193.25181418 37.70216925 193.24450874 31.27627563 C193.24345773 28.91149226 193.2458561 26.5467046 193.2518692 24.18192863 C193.2595195 20.96617704 193.25499088 17.75067315 193.24723816 14.53492737 C193.2549535 13.11476557 193.2549535 13.11476557 193.26282471 11.66591364 C193.25822592 10.80911633 193.25362712 9.95231901 193.24888897 9.06955814 C193.24910634 8.32660781 193.24932371 7.58365748 193.24954766 6.8181935 C193.15218547 4.74925877 193.15218547 4.74925877 191 3 C188.54600134 2.80265728 186.2047765 2.73066233 183.74963379 2.74603271 C182.99387888 2.74291273 182.23812398 2.73979275 181.45946741 2.73657823 C178.91365538 2.72856721 176.36807966 2.73493384 173.82226562 2.74121094 C172.00257731 2.73850245 170.18289009 2.73494232 168.36320496 2.73059082 C163.41084052 2.72144762 158.45855911 2.72501901 153.50619316 2.73134899 C148.3327804 2.73639902 143.15937494 2.73172033 137.98596191 2.72857666 C129.29678058 2.7249341 120.60763321 2.72974371 111.91845703 2.73925781 C101.86076019 2.75014291 91.80314442 2.74661754 81.74544954 2.735605 C73.12293696 2.72654038 64.50044883 2.7252428 55.87793303 2.73048234 C50.72246693 2.73360659 45.56703899 2.73399894 40.41157532 2.72740936 C35.56564333 2.7216485 30.71981626 2.72560959 25.87389565 2.73719788 C24.09124743 2.73985123 22.30859044 2.73906793 20.52594566 2.73467255 C18.10063171 2.72924216 15.67565822 2.73602039 13.25036621 2.74603271 C12.5377307 2.74157127 11.82509519 2.73710983 11.09086466 2.73251319 C7.10012786 2.65854204 7.10012786 2.65854204 4 5 Z " fill="#2C81BC" transform="translate(0,0)"/>
<path d="M0 0 C7.5372007 3.82186679 13.04467903 8.92719934 16.52734375 16.6953125 C18.8316891 24.14992281 18.20626082 31.49261062 14.63671875 38.40625 C10.622675 44.86848762 5.9847662 49.66347137 -1.453125 52.015625 C-9.60662979 53.59939931 -17.23518255 53.1681156 -24.47265625 48.98046875 C-30.55332148 44.62137117 -34.59679463 38.64507726 -36.625 31.4375 C-37.64274657 23.42131632 -36.67902191 16.6639855 -31.92578125 10.0859375 C-23.91720328 0.42529531 -12.29647822 -4.99544428 0 0 Z " fill="#FEFCFC" transform="translate(107.625,109.5625)"/>
<path d="M0 0 C0.75857618 -0.00382555 1.51715237 -0.00765109 2.29871571 -0.01159257 C4.84823102 -0.02193611 7.39752169 -0.01792787 9.947052 -0.01396179 C11.77187306 -0.01830755 13.59669229 -0.02349025 15.42150879 -0.02944946 C20.38433898 -0.04286621 25.34709315 -0.0434151 30.30993795 -0.04088616 C34.45018032 -0.03981813 38.5904072 -0.04469557 42.73064625 -0.04949158 C52.49745469 -0.0605963 62.26422468 -0.06101894 72.03103638 -0.05497742 C82.1120107 -0.04893748 92.19284546 -0.06124695 102.27379596 -0.08254749 C110.92355359 -0.10015304 119.57326676 -0.10616645 128.22304165 -0.10290974 C133.39146855 -0.10109487 138.55979593 -0.10375329 143.72820663 -0.11762428 C148.58897016 -0.13018077 153.44951593 -0.12827918 158.31027603 -0.11521339 C160.09489261 -0.1128432 161.8795244 -0.11559811 163.66412354 -0.12383652 C166.09941582 -0.13426852 168.53397267 -0.12623221 170.96923828 -0.11352539 C172.02989701 -0.12458682 172.02989701 -0.12458682 173.11198318 -0.13587171 C177.42231841 -0.08852137 180.52330736 0.12736467 183.61160278 3.26069641 C184.35797835 6.52505984 184.26346834 9.73925195 184.21287537 13.07446289 C184.21928355 14.60351461 184.21928355 14.60351461 184.2258212 16.16345626 C184.23408859 19.59564258 184.20650309 23.02661984 184.17922974 26.45869446 C184.17782008 28.91230745 184.17860962 31.36592254 184.18144226 33.8195343 C184.18258262 39.11040623 184.16835767 44.40089836 184.14025307 49.69167137 C184.09964514 57.34120443 184.08659868 64.99058836 184.08031311 72.64021752 C184.06936562 85.05066016 184.03607924 97.46093863 183.98880005 109.87129211 C183.94291613 121.92792437 183.90751855 133.98451207 183.88626099 146.04121399 C183.88494737 146.78418772 183.88363375 147.52716145 183.88228033 148.29264953 C183.87575522 152.01987109 183.86943666 155.74709296 183.86322081 159.47431505 C183.81137368 190.40322822 183.72292493 221.3319374 183.61160278 252.26069641 C180.61160278 250.26069641 180.61160278 250.26069641 180.23374593 248.44250292 C180.2323894 247.69955258 180.23103287 246.95660225 180.22963524 246.19113827 C180.2207954 245.33434095 180.21195555 244.47754364 180.20284784 243.59478277 C180.21114238 242.17462097 180.21114238 242.17462097 180.21960449 240.72576904 C180.21366323 239.72429543 180.20772197 238.72282182 180.20160067 237.69100052 C180.18520642 234.31364961 180.19027228 230.93666287 180.19509888 227.5592804 C180.18772482 225.14684118 180.1790217 222.73440572 180.16908264 220.32197571 C180.15053705 215.11690477 180.14111898 209.91190079 180.13978195 204.70680046 C180.1377459 197.17995893 180.11830605 189.6532409 180.09438403 182.12644077 C180.0559521 169.91412553 180.0301588 157.70181863 180.01296997 145.48945618 C179.996233 133.62681405 179.97605554 121.7641901 179.94949341 109.90156555 C179.94785999 109.17084249 179.94622656 108.44011942 179.94454364 107.68725323 C179.926589 99.71570052 179.90724368 91.7441521 179.88624001 83.77260685 C179.88439859 83.07270416 179.88255717 82.37280147 179.88065995 81.65168961 C179.87328149 78.85435933 179.86588808 76.05702911 179.85831614 73.25969935 C179.83614773 65.05697604 179.81835846 56.85427052 179.80836333 48.65152288 C179.801246 42.90286279 179.78955727 37.15421971 179.77623177 31.40557098 C179.77165466 29.04037052 179.76882188 26.67516599 179.76780891 24.30996132 C179.76624897 21.0961599 179.75870157 17.88242777 179.74963379 14.66864014 C179.75070204 13.71963489 179.75177029 12.77062963 179.75287092 11.79286665 C180.1526717 7.70317973 180.1526717 7.70317973 178.61160278 4.26069641 C176.23222338 4.158615 173.88171857 4.12181795 171.50167847 4.12698364 C170.74889468 4.12471809 169.9961109 4.12245253 169.22051549 4.12011832 C166.67866214 4.11374945 164.13686171 4.11460953 161.59500122 4.11543274 C159.78032868 4.11244297 157.96565677 4.10904087 156.15098572 4.10525513 C151.20664864 4.09639059 146.26232884 4.09407594 141.31798458 4.09343934 C137.19524427 4.09249195 133.07250802 4.08881548 128.94976926 4.08526725 C119.22327549 4.07711275 109.49679098 4.07468385 99.77029419 4.07539368 C89.72915621 4.07599418 79.688072 4.06545006 69.64694762 4.04965001 C61.03545304 4.03658121 52.42397605 4.03120953 43.81247163 4.03184909 C38.66527307 4.03210434 33.51812224 4.02923815 28.37093353 4.01867104 C23.52829725 4.00900159 18.6857544 4.00890296 13.84311485 4.01618767 C12.06494956 4.01723507 10.28677849 4.01486143 8.50862312 4.00882721 C6.08212556 4.00112596 3.6559521 4.00573971 1.22946167 4.01345825 C0.52488256 4.00831469 -0.17969655 4.00317113 -0.90562654 3.9978717 C-4.83850926 4.0255368 -7.84365736 4.53630633 -11.38839722 6.26069641 C-11.07589722 4.38569641 -11.07589722 4.38569641 -10.38839722 2.26069641 C-6.77741851 -0.14662273 -4.17024218 -0.02214927 0 0 Z " fill="#1779B8" transform="translate(12.388397216796875,-0.2606964111328125)"/>
<path d="M0 0 C7.55004273 2.34210849 7.55004273 2.34210849 24.4375 1.5 C24.4375 40.77 24.4375 80.04 24.4375 120.5 C15.1989806 123.57950647 8.95675352 123.17189325 -0.01953125 119.47265625 C-10.66010095 115.40276093 -21.39968982 117.02432532 -31.5625 121.5 C-32.614375 121.995 -33.66625 122.49 -34.75 123 C-38.52517848 123.67114284 -40.2467312 122.41378072 -43.51171875 120.59375 C-53.25478867 115.39744604 -65.23781889 116.66074819 -75.41796875 119.74609375 C-77.57521815 120.45416564 -77.57521815 120.45416564 -79.5625 121.5 C-85.1725 121.5 -90.7825 121.5 -96.5625 121.5 C-96.5625 82.23 -96.5625 42.96 -96.5625 2.5 C-90.6225 2.17 -84.6825 1.84 -78.5625 1.5 C-74.79958889 0.7416305 -74.79958889 0.7416305 -71.05078125 -0.08203125 C-60.37181956 -1.87582858 -49.86400076 -1.09774892 -40.5625 4.4375 C-37.06295598 6.3557822 -37.06295598 6.3557822 -33.28125 5.81640625 C-31.76991062 4.91971369 -30.28672756 3.97421377 -28.83203125 2.98828125 C-20.56404193 -2.43358438 -9.19523603 -3.35826011 0 0 Z M-36.5625 10.5 C-37.43261719 9.88511719 -37.43261719 9.88511719 -38.3203125 9.2578125 C-39.49207031 8.44957031 -39.49207031 8.44957031 -40.6875 7.625 C-41.45320313 7.09132813 -42.21890625 6.55765625 -43.0078125 6.0078125 C-49.10291995 2.41039434 -54.60709133 2.18886556 -61.5 2.25 C-62.36818359 2.24226563 -63.23636719 2.23453125 -64.13085938 2.2265625 C-64.98357422 2.22914062 -65.83628906 2.23171875 -66.71484375 2.234375 C-67.47788818 2.23663086 -68.24093262 2.23888672 -69.02709961 2.24121094 C-72.36116098 2.50651585 -72.36116098 2.50651585 -78.5625 4.5 C-86.4825 4.995 -86.4825 4.995 -94.5625 5.5 C-94.5625 42.79 -94.5625 80.08 -94.5625 118.5 C-81.75316172 118.83195367 -81.75316172 118.83195367 -70.5625 115.5 C-60.57770751 112.17173584 -50.06696524 114.91784941 -40.5625 118.5 C-39.72976562 118.92152344 -38.89703125 119.34304687 -38.0390625 119.77734375 C-34.60502655 120.77938894 -33.13062284 119.80288397 -30 118.1875 C-21.42241891 113.84517393 -12.0644371 112.59228513 -2.6953125 115.6171875 C-1.41778466 116.06666394 -0.14423725 116.52761961 1.125 117 C7.39532273 119.31700861 12.77324233 120.37852738 19.4375 119.5 C20.0975 119.17 20.7575 118.84 21.4375 118.5 C21.4375 81.21 21.4375 43.92 21.4375 5.5 C14.5075 5.005 14.5075 5.005 7.4375 4.5 C1.4375 2.9375 1.4375 2.9375 -1.48828125 2.14453125 C-15.25099836 -0.7409177 -25.54758049 2.45364036 -36.5625 10.5 Z " fill="#1BA25A" transform="translate(134.5625,70.5)"/>
<path d="M0 0 C0.66 0 1.32 0 2 0 C2 80.85 2 161.7 2 245 C1.01 245.33 0.02 245.66 -1 246 C-1.02278983 214.80547109 -1.0404979 183.61094436 -1.05106533 152.41640911 C-1.05231611 148.73748562 -1.05361042 145.05856214 -1.05493164 141.37963867 C-1.05519395 140.64720036 -1.05545626 139.91476205 -1.05572652 139.16012865 C-1.06008333 127.28502582 -1.06797094 115.4099278 -1.0771528 103.53482784 C-1.08648903 91.35893969 -1.09205554 79.18305409 -1.09408849 67.00716251 C-1.09546379 59.48794689 -1.0998147 51.96874489 -1.10791647 44.44953346 C-1.11380426 38.69350728 -1.11445904 32.93748992 -1.11310768 27.18146133 C-1.1133842 24.81303384 -1.11539185 22.44460585 -1.11920547 20.07618141 C-1.12413603 16.85790213 -1.12300066 13.63968246 -1.12025452 10.42140198 C-1.12316736 9.47103249 -1.1260802 8.520663 -1.12908131 7.54149443 C-1.11412121 1.11412121 -1.11412121 1.11412121 0 0 Z " fill="#2981BC" transform="translate(2,5)"/>
<path d="M0 0 C4.23349685 1.15176017 8.50222877 1.19143276 12.87109375 1.31640625 C15.91918241 1.76100824 16.82071655 2.31791556 18.65625 4.72265625 C11.76264094 4.99799271 5.32984995 5.14357083 -1.34375 3.22265625 C-10.83869135 0.56052316 -21.37025954 0.18605829 -30.34375 4.72265625 C-33.44541604 6.59221875 -36.4198548 8.58676117 -39.34375 10.72265625 C-40.21386719 10.10777344 -40.21386719 10.10777344 -41.1015625 9.48046875 C-42.27332031 8.67222656 -42.27332031 8.67222656 -43.46875 7.84765625 C-44.23445313 7.31398438 -45.00015625 6.7803125 -45.7890625 6.23046875 C-51.88416995 2.63305059 -57.38834133 2.41152181 -64.28125 2.47265625 C-65.14943359 2.46492188 -66.01761719 2.4571875 -66.91210938 2.44921875 C-67.76482422 2.45179687 -68.61753906 2.454375 -69.49609375 2.45703125 C-70.25913818 2.45928711 -71.02218262 2.46154297 -71.80834961 2.46386719 C-75.14241098 2.7291721 -75.14241098 2.7291721 -81.34375 4.72265625 C-86.62375 4.72265625 -91.90375 4.72265625 -97.34375 4.72265625 C-97.34375 42.01265625 -97.34375 79.30265625 -97.34375 117.72265625 C-92.72375 117.72265625 -88.10375 117.72265625 -83.34375 117.72265625 C-84.00375 118.71265625 -84.66375 119.70265625 -85.34375 120.72265625 C-89.96375 120.72265625 -94.58375 120.72265625 -99.34375 120.72265625 C-99.34375 81.45265625 -99.34375 42.18265625 -99.34375 1.72265625 C-93.40375 1.39265625 -87.46375 1.06265625 -81.34375 0.72265625 C-77.58083889 -0.03571325 -77.58083889 -0.03571325 -73.83203125 -0.859375 C-63.15306956 -2.65317233 -52.64525076 -1.87509267 -43.34375 3.66015625 C-39.84420598 5.57843845 -39.84420598 5.57843845 -36.0625 5.0390625 C-34.55116062 4.14236994 -33.06797756 3.19687002 -31.61328125 2.2109375 C-22.12204543 -4.01309149 -10.33067674 -3.60567451 0 0 Z " fill="#0C9D51" transform="translate(137.34375,71.27734375)"/>
<path d="M0 0 C6.29030715 5.26331823 11.18206814 11.4429625 12.00390625 19.8046875 C12.114286 30.45633364 10.77228631 38.925427 3.22265625 46.92578125 C-2.99925515 52.77250202 -10.66020525 55.31913438 -19.08203125 56.01171875 C-26.94933318 55.72586102 -35.03009643 51.5180536 -40.67578125 46.1640625 C-42.4416956 43.98285897 -43.91839587 41.8082238 -45.33203125 39.38671875 C-45.97140625 38.33484375 -46.61078125 37.28296875 -47.26953125 36.19921875 C-49.64157133 27.68778081 -49.43480515 18.68707471 -45.65234375 10.6328125 C-41.43360363 3.4559617 -36.06290348 -1.43078438 -28.33203125 -4.61328125 C-18.34632627 -7.06260511 -8.57664195 -5.93325481 0 0 Z M-40.33203125 8.38671875 C-45.30617878 15.25851794 -46.13120805 22.09103842 -45.33203125 30.38671875 C-43.05562993 38.62078753 -38.14025113 45.05947483 -30.76953125 49.32421875 C-23.63409453 52.58521019 -15.49167862 52.6583473 -8.01953125 50.32421875 C-0.36264731 46.86000488 4.68500142 41.13906322 7.66796875 33.38671875 C9.87928805 26.75276085 9.60855255 19.51597665 6.73046875 13.13671875 C2.75787712 6.16785038 -3.4402821 0.15631224 -11.23828125 -2.2109375 C-23.09124872 -4.48865326 -32.26263418 -0.33991428 -40.33203125 8.38671875 Z " fill="#EB292A" transform="translate(116.33203125,110.61328125)"/>
<path d="M0 0 C6.75 0.875 6.75 0.875 9 2 C9 2.66 9 3.32 9 4 C10.299375 3.979375 11.59875 3.95875 12.9375 3.9375 C14.29165633 3.91600546 15.64756083 3.92851801 17 4 C17.33 4.33 17.66 4.66 18 5 C18.66 4.34 19.32 3.68 20 3 C20.66 3.33 21.32 3.66 22 4 C22.33 3.01 22.66 2.02 23 1 C25.625 0.6875 25.625 0.6875 29 1 C30.33298508 2.16636195 31.66138135 3.33890347 32.953125 4.55078125 C37.56404554 7.81538339 43.58743744 9.54277162 49 11 C49.66 10.67 50.32 10.34 51 10 C52.66666667 11.66666667 54.33333333 13.33333333 56 15 C55.67 15.33 55.34 15.66 55 16 C56.32 16.99 57.64 17.98 59 19 C58.505 20.485 58.505 20.485 58 22 C57.505 20.515 57.505 20.515 57 19 C56.01 19 55.02 19 54 19 C54 19.66 54 20.32 54 21 C52.68 20.67 51.36 20.34 50 20 C50.875 16.125 50.875 16.125 52 15 C51.34 14.67 50.68 14.34 50 14 C49.34 15.32 48.68 16.64 48 18 C48 16.35 48 14.7 48 13 C47.34 12.67 46.68 12.34 46 12 C45.34 14.64 44.68 17.28 44 20 C40 21 40 21 38 20 C38.33 18.02 38.66 16.04 39 14 C37.68 14.33 36.36 14.66 35 15 C35.33 12.69 35.66 10.38 36 8 C35.01 8.33 34.02 8.66 33 9 C32.19787372 10.87387216 32.19787372 10.87387216 31.8125 13.0625 C31.57466797 14.16271484 31.57466797 14.16271484 31.33203125 15.28515625 C31.22246094 15.85105469 31.11289063 16.41695312 31 17 C28.5 14.6875 28.5 14.6875 26 12 C26 11.01 26 10.02 26 9 C26.66 8.67 27.32 8.34 28 8 C26.68 7.34 25.36 6.68 24 6 C23.67 9.3 23.34 12.6 23 16 C22.67 16 22.34 16 22 16 C21.875 8.25 21.875 8.25 23 6 C22.01 6 21.02 6 20 6 C20 9.3 20 12.6 20 16 C19.34 16 18.68 16 18 16 C18 15.01 18 14.02 18 13 C17.34 13 16.68 13 16 13 C16 12.01 16 11.02 16 10 C14.68 10 13.36 10 12 10 C12 9.01 12 8.02 12 7 C11.34 6.67 10.68 6.34 10 6 C10 9.3 10 12.6 10 16 C9.01 15.01 8.02 14.02 7 13 C4.90010348 11.82425289 4.90010348 11.82425289 3 11 C3.66 9.68 4.32 8.36 5 7 C3.68 6.67 2.36 6.34 1 6 C1.33 9.3 1.66 12.6 2 16 C1.34 15.67 0.68 15.34 0 15 C0 12.03 0 9.06 0 6 C-0.99 5.67 -1.98 5.34 -3 5 C-2.01 3.35 -1.02 1.7 0 0 Z " fill="#9DC1DE" transform="translate(88,14)"/>
<path d="M0 0 C1.98 0 3.96 0 6 0 C6 0.33 6 0.66 6 1 C4.35 1 2.7 1 1 1 C1.33 1.66 1.66 2.32 2 3 C2.0922681 4.50785353 2.12192932 6.01975304 2.12025452 7.53042603 C2.12162918 8.48397476 2.12300385 9.4375235 2.12442017 10.41996765 C2.12082489 11.46941055 2.11722961 12.51885345 2.11352539 13.60009766 C2.11367142 14.70254318 2.11381744 15.80498871 2.1139679 16.94084167 C2.11326912 20.59860171 2.10547833 24.25631132 2.09765625 27.9140625 C2.09579195 30.44469169 2.0943681 32.97532125 2.09336853 35.50595093 C2.08993557 41.49473456 2.08204755 47.48349642 2.07201904 53.47227132 C2.06085033 60.2895978 2.05534554 67.10692513 2.05032361 73.92425847 C2.03986475 87.94951604 2.02206911 101.97475633 2 116 C6.62 116 11.24 116 16 116 C15.34 116.99 14.68 117.98 14 119 C9.38 119 4.76 119 0 119 C0 79.73 0 40.46 0 0 Z " fill="#009A49" transform="translate(38,73)"/>
<path d="M0 0 C1.98 0 3.96 0 6 0 C6 84.15 6 168.3 6 255 C4.02 255 2.04 255 0 255 C0.64952385 254.70699257 1.2990477 254.41398514 1.96825409 254.11209869 C5.27913849 250.67027333 4.55075317 246.80390611 4.50793457 242.2064209 C4.51417453 241.18916978 4.5204145 240.17191867 4.52684355 239.12384176 C4.54285934 235.69886518 4.53013542 232.27459184 4.51757812 228.84960938 C4.52299541 226.4008594 4.53011584 223.95211269 4.53881836 221.50337219 C4.55520065 215.53293501 4.55275284 209.56277611 4.5411678 203.59234965 C4.53214332 198.74117101 4.53090518 193.89004876 4.53526306 189.03886414 C4.53587599 188.34907183 4.53648893 187.65927952 4.53712043 186.94858441 C4.5383993 185.54739319 4.53969615 184.14620198 4.5410108 182.74501079 C4.55242377 169.59835395 4.5392917 156.45180857 4.51780933 143.30517 C4.49993766 132.01865776 4.50304157 120.73231006 4.52148438 109.44580078 C4.54287848 96.34699305 4.55132507 83.24828308 4.53903532 70.14946032 C4.53776109 68.75335218 4.53650361 67.35724403 4.53526306 65.96113586 C4.53433741 64.93070133 4.53433741 64.93070133 4.53339306 63.87944993 C4.52993576 59.03270253 4.53577664 54.186017 4.54518127 49.33927917 C4.55755504 42.81889457 4.54877684 36.2987734 4.52560425 29.77840233 C4.52029874 27.38017991 4.52186214 24.98193142 4.53065491 22.58371925 C4.54152103 19.31998051 4.52795441 16.05725272 4.50793457 12.7935791 C4.51685746 11.83551786 4.52578034 10.87745662 4.53497362 9.89036322 C4.63569036 4.87534162 4.63569036 4.87534162 1.96825409 0.88790131 C1.31873024 0.59489388 0.66920639 0.30188644 0 0 Z " fill="#4D8FC4" transform="translate(191,0)"/>
<path d="M0 0 C1.65 0 3.3 0 5 0 C4.51278642 0.40773401 4.02557284 0.81546803 3.52359521 1.23555762 C1.6430883 3.41333165 1.62432166 4.38968596 1.62247658 7.23107815 C1.61465334 8.0984666 1.60683009 8.96585505 1.59876978 9.85952801 C1.60546195 10.81301618 1.61215411 11.76650435 1.61904907 12.74888611 C1.6143691 13.76134811 1.60968913 14.7738101 1.60486734 15.81695276 C1.59285599 19.22567477 1.60239869 22.63399928 1.61181641 26.04272461 C1.60775341 28.47999813 1.60241308 30.9172698 1.59588623 33.35453796 C1.58359935 39.29719478 1.5854357 45.23969433 1.59412415 51.18234508 C1.60089301 56.011578 1.60182088 60.84077904 1.5985527 65.67001534 C1.598093 66.35674356 1.59763331 67.04347179 1.59715968 67.75100996 C1.59620052 69.14599844 1.59522788 70.54098692 1.5942419 71.93597538 C1.58568193 85.02493966 1.59553131 98.11384097 1.611643 111.20279492 C1.62504376 122.43723013 1.62272129 133.67157233 1.60888672 144.90600586 C1.59283645 157.94584754 1.58650911 170.98563397 1.59572351 184.02548414 C1.59667917 185.41571239 1.59762229 186.80594064 1.5985527 188.1961689 C1.59901553 188.88022043 1.59947836 189.56427197 1.59995521 190.26905234 C1.60254699 195.09277726 1.59817 199.91646719 1.59111404 204.74018669 C1.58182729 211.23180499 1.58842823 217.72328879 1.60579681 224.21489143 C1.60977298 226.60140821 1.60860841 228.98793972 1.60200882 231.37445068 C1.59384794 234.62454579 1.60404922 237.8740717 1.61904907 241.12413025 C1.61235691 242.0753877 1.60566474 243.02664515 1.59876978 244.00672859 C1.60388215 249.04884719 1.60388215 249.04884719 3.52380943 253.61724186 C4.01095232 254.07355205 4.49809521 254.52986223 5 255 C3.35 255 1.7 255 0 255 C0 170.85 0 86.7 0 0 Z " fill="#4D8FC3" transform="translate(0,0)"/>
<path d="M0 0 C2.31 0 4.62 0 7 0 C7.495 1.485 7.495 1.485 8 3 C8.66 3.33 9.32 3.66 10 4 C9.01 4.33 8.02 4.66 7 5 C7.2475 5.8971875 7.2475 5.8971875 7.5 6.8125 C8 9 8 9 8 12 C7.34 12.33 6.68 12.66 6 13 C3.375 11.5625 3.375 11.5625 1 10 C2.32 9.01 3.64 8.02 5 7 C4.01 7 3.02 7 2 7 C2 6.34 2 5.68 2 5 C1.01 4.67 0.02 4.34 -1 4 C-1 7.3 -1 10.6 -1 14 C-3 11 -3 11 -4 9 C-5.32 9.33 -6.64 9.66 -8 10 C-8 8.68 -8 7.36 -8 6 C-6.68 6 -5.36 6 -4 6 C-3.67 5.34 -3.34 4.68 -3 4 C-5.31 4 -7.62 4 -10 4 C-10 7.3 -10 10.6 -10 14 C-10.66 13.67 -11.32 13.34 -12 13 C-12.625 10.9375 -12.625 10.9375 -13 9 C-13.99 10.485 -13.99 10.485 -15 12 C-16.875 12.328125 -16.875 12.328125 -19 12.25 C-19.70125 12.23453125 -20.4025 12.2190625 -21.125 12.203125 C-23 12 -23 12 -25 11 C-24.67 10.34 -24.34 9.68 -24 9 C-23.67 9 -23.34 9 -23 9 C-23.27617533 7.05925139 -23.27617533 7.05925139 -24 5 C-24.99 4.34 -25.98 3.68 -27 3 C-22.05 3 -17.1 3 -12 3 C-11.67 2.34 -11.34 1.68 -11 1 C-11 1.66 -11 2.32 -11 3 C-5.06 2.505 -5.06 2.505 1 2 C0.67 1.34 0.34 0.68 0 0 Z " fill="#93CEAB" transform="translate(94,201)"/>
<path d="M0 0 C6.75 0.875 6.75 0.875 9 2 C9 2.66 9 3.32 9 4 C10.299375 3.979375 11.59875 3.95875 12.9375 3.9375 C14.29165633 3.91600546 15.64756083 3.92851801 17 4 C17.33 4.33 17.66 4.66 18 5 C18.66 4.34 19.32 3.68 20 3 C20.66 3.33 21.32 3.66 22 4 C22.33 3.01 22.66 2.02 23 1 C24.98 1 26.96 1 29 1 C29.495 1.99 29.495 1.99 30 3 C28.35 3 26.7 3 25 3 C24.67 3.66 24.34 4.32 24 5 C24.99 5.33 25.98 5.66 27 6 C26.01 6 25.02 6 24 6 C23.67 9.3 23.34 12.6 23 16 C22.67 16 22.34 16 22 16 C21.875 8.25 21.875 8.25 23 6 C22.01 6 21.02 6 20 6 C20 9.3 20 12.6 20 16 C19.34 16 18.68 16 18 16 C18 15.01 18 14.02 18 13 C17.34 13 16.68 13 16 13 C16 12.01 16 11.02 16 10 C14.68 10 13.36 10 12 10 C12 9.01 12 8.02 12 7 C11.34 6.67 10.68 6.34 10 6 C10 9.3 10 12.6 10 16 C9.01 15.01 8.02 14.02 7 13 C4.90010348 11.82425289 4.90010348 11.82425289 3 11 C3.66 9.68 4.32 8.36 5 7 C3.68 6.67 2.36 6.34 1 6 C1.33 9.3 1.66 12.6 2 16 C1.34 15.67 0.68 15.34 0 15 C0 12.03 0 9.06 0 6 C-0.99 5.67 -1.98 5.34 -3 5 C-2.01 3.35 -1.02 1.7 0 0 Z " fill="#94BADA" transform="translate(88,14)"/>
<path d="M0 0 C3 2 3 2 3.6875 4.125 C3.8421875 5.053125 3.8421875 5.053125 4 6 C2.68 5.67 1.36 5.34 0 5 C1.32 7.64 2.64 10.28 4 13 C1 15 1 15 -2 15 C-2.33 15.99 -2.66 16.98 -3 18 C-5.375 17.6875 -5.375 17.6875 -8 17 C-10 14 -10 14 -10.5625 11.6875 C-9.78176711 7.95733177 -7.76087041 6.7075934 -4.82421875 4.4296875 C-3.07376596 3.05781229 -1.53979245 1.60138414 0 0 Z " fill="#C7DBEC" transform="translate(49,30)"/>
<path d="M0 0 C1.31611677 0.95336021 2.62778961 1.91285774 3.9375 2.875 C4.66839844 3.40867187 5.39929688 3.94234375 6.15234375 4.4921875 C8 6 8 6 9 8 C7.35 8 5.7 8 4 8 C4 9.32 4 10.64 4 12 C4 13.66666667 4 15.33333333 4 17 C0.39991481 17.32728047 -1.41611492 17.40422813 -4.4375 15.3125 C-6 13 -6 13 -6.0625 10.75 C-4.55027674 6.83601039 -2.33485998 3.47213496 0 0 Z " fill="#E6EEF5" transform="translate(18,61)"/>
<path d="M0 0 C1.14926266 0.95421808 2.29430541 1.91352045 3.4375 2.875 C4.39462891 3.67550781 4.39462891 3.67550781 5.37109375 4.4921875 C7 6 7 6 8 8 C5 10 5 10 2 10 C1.67 10.66 1.34 11.32 1 12 C-0.98 10.35 -2.96 8.7 -5 7 C-3.02 9.97 -3.02 9.97 -1 13 C-2.231394 15.46278801 -3.78064923 16.42497687 -6 18 C-7.32 17.34 -8.64 16.68 -10 16 C-9.38722388 13.03824877 -8.74627478 11.61941217 -7 9 C-7.33 8.01 -7.66 7.02 -8 6 C-3.125 5 -3.125 5 -2 5 C-1.855625 4.360625 -1.71125 3.72125 -1.5625 3.0625 C-1 1 -1 1 0 0 Z " fill="#6CA2CE" transform="translate(164,210)"/>
<path d="M0 0 C0.66 0.33 1.32 0.66 2 1 C2 1.99 2 2.98 2 4 C3.0772721 5.65503095 3.0772721 5.65503095 4.5 7.1875 C5.325 8.115625 6.15 9.04375 7 10 C4.525 9.505 4.525 9.505 2 9 C1.67 9.99 1.34 10.98 1 12 C0.34 12 -0.32 12 -1 12 C-1 10.68 -1 9.36 -1 8 C-2.65 8.33 -4.3 8.66 -6 9 C-4.824375 10.1446875 -4.824375 10.1446875 -3.625 11.3125 C-1 14 -1 14 1 17 C-3.75 15.125 -3.75 15.125 -6 14 C-5.67 15.65 -5.34 17.3 -5 19 C-5.66 19 -6.32 19 -7 19 C-7.33 18.34 -7.66 17.68 -8 17 C-8.99 17.33 -9.98 17.66 -11 18 C-11.66 17.34 -12.32 16.68 -13 16 C-9.26670526 10.11288137 -4.97490157 4.88632765 0 0 Z " fill="#2F7DBB" transform="translate(32,44)"/>
<path d="M0 0 C1.66611905 -0.042721 3.33382885 -0.04063832 5 0 C6 1 6 1 6.0625 3.5625 C6.041875 4.366875 6.02125 5.17125 6 6 C6.99 5.67 7.98 5.34 9 5 C10.03046722 6.78614318 11.04913236 8.57910018 12.0625 10.375 C12.63097656 11.37273437 13.19945312 12.37046875 13.78515625 13.3984375 C14.38650391 14.68621094 14.38650391 14.68621094 15 16 C14.67 16.66 14.34 17.32 14 18 C13.01 17.67 12.02 17.34 11 17 C8.63477442 17.92203709 6.29598193 18.91698965 4 20 C4.66 18.68 5.32 17.36 6 16 C6.66 16 7.32 16 8 16 C8 15.34 8 14.68 8 14 C7.01 14 6.02 14 5 14 C5 13.01 5 12.02 5 11 C6.65 11.33 8.3 11.66 10 12 C9.01 10.68 8.02 9.36 7 8 C5.576875 8.99 5.576875 8.99 4.125 10 C1 12 1 12 -1 12 C-1.33 13.32 -1.66 14.64 -2 16 C-3.4606285 13.35261084 -4 12.10551666 -4 9 C-3.4225 9.226875 -2.845 9.45375 -2.25 9.6875 C0.12172477 10.26505193 0.12172477 10.26505193 2.25 8.5625 C2.8275 8.046875 3.405 7.53125 4 7 C3.34 6.5875 2.68 6.175 2 5.75 C1.34 5.1725 0.68 4.595 0 4 C0 2.68 0 1.36 0 0 Z " fill="#2578B8" transform="translate(174,57)"/>
<path d="M0 0 C2.0625 0.4375 2.0625 0.4375 4 1 C-1.16602478 8.15295739 -7.49731156 11.32673041 -16 13 C-19.35345873 13.21473101 -22.64645105 13.19265068 -26 13 C-25.01 12.67 -24.02 12.34 -23 12 C-23 11.01 -23 10.02 -23 9 C-21.74896484 8.88785156 -21.74896484 8.88785156 -20.47265625 8.7734375 C-12.26555012 7.81453163 -5.96007337 5.96007337 0 0 Z " fill="#EB2D2E" transform="translate(118,153)"/>
<path d="M0 0 C2.31 0 4.62 0 7 0 C7.33 0.99 7.66 1.98 8 3 C8.66 3.33 9.32 3.66 10 4 C9.01 4.33 8.02 4.66 7 5 C7.2475 5.8971875 7.2475 5.8971875 7.5 6.8125 C8 9 8 9 8 12 C7.01 12.495 7.01 12.495 6 13 C3.375 11.5625 3.375 11.5625 1 10 C2.32 9.01 3.64 8.02 5 7 C4.01 7 3.02 7 2 7 C2 6.34 2 5.68 2 5 C1.01 4.67 0.02 4.34 -1 4 C-1 7.3 -1 10.6 -1 14 C-3 11 -3 11 -4 9 C-5.32 9.33 -6.64 9.66 -8 10 C-8 8.68 -8 7.36 -8 6 C-6.68 6 -5.36 6 -4 6 C-3.67 5.34 -3.34 4.68 -3 4 C-5.64 4 -8.28 4 -11 4 C-11 3.67 -11 3.34 -11 3 C-5.06 2.505 -5.06 2.505 1 2 C0.67 1.34 0.34 0.68 0 0 Z " fill="#189E50" transform="translate(94,201)"/>
<path d="M0 0 C6.98032111 -0.32382933 12.74191636 -0.02686766 19.34375 2.27734375 C23.57724685 3.42910392 27.84597877 3.46877651 32.21484375 3.59375 C35.26293241 4.03835199 36.16446655 4.59525931 38 7 C29.91651464 7.3228611 22.77078511 7.01719765 14.9765625 4.80078125 C10.05537923 3.47684087 5.03434392 2.75872205 0 2 C0 1.34 0 0.68 0 0 Z " fill="#1BA25B" transform="translate(118,69)"/>
<path d="M0 0 C0.78375 0.04125 1.5675 0.0825 2.375 0.125 C2.705 1.445 3.035 2.765 3.375 4.125 C4.695 4.455 6.015 4.785 7.375 5.125 C7.375 8.125 7.375 8.125 5.765625 9.984375 C5.05921875 10.60828125 4.3528125 11.2321875 3.625 11.875 C2.92890625 12.50921875 2.2328125 13.1434375 1.515625 13.796875 C-0.625 15.125 -0.625 15.125 -2.890625 14.828125 C-3.74914062 14.48007813 -3.74914062 14.48007813 -4.625 14.125 C-4.625 12.805 -4.625 11.485 -4.625 10.125 C-3.965 10.125 -3.305 10.125 -2.625 10.125 C-1.965 8.805 -1.305 7.485 -0.625 6.125 C-1.945 4.805 -3.265 3.485 -4.625 2.125 C-2.625 0.125 -2.625 0.125 0 0 Z " fill="#609CCB" transform="translate(28.625,204.875)"/>
<path d="M0 0 C-0.66 0 -1.32 0 -2 0 C-1.34 3.63 -0.68 7.26 0 11 C-0.66 11 -1.32 11 -2 11 C-2.66 7.7 -3.32 4.4 -4 1 C-4.99 1 -5.98 1 -7 1 C-6.77183594 1.62648438 -6.54367188 2.25296875 -6.30859375 2.8984375 C-6.02113281 3.71570313 -5.73367187 4.53296875 -5.4375 5.375 C-5.14746094 6.18710937 -4.85742188 6.99921875 -4.55859375 7.8359375 C-4 10 -4 10 -5 12 C-5.99 12 -6.98 12 -8 12 C-8.33 11.01 -8.66 10.02 -9 9 C-9.99 8.67 -10.98 8.34 -12 8 C-11.67 6.68 -11.34 5.36 -11 4 C-13.31 4 -15.62 4 -18 4 C-15.48115349 1.48115349 -13.56355758 1.1742412 -10.125 0.3125 C-9.07570313 0.04050781 -8.02640625 -0.23148438 -6.9453125 -0.51171875 C-4.14833162 -0.97540921 -2.627808 -0.94575698 0 0 Z " fill="#3481BD" transform="translate(83,21)"/>
<path d="M0 0 C0.96679688 0.19464844 1.93359375 0.38929687 2.9296875 0.58984375 C3.65414062 0.74582031 4.37859375 0.90179688 5.125 1.0625 C5.125 1.3925 5.125 1.7225 5.125 2.0625 C4.19558594 2.11148438 3.26617187 2.16046875 2.30859375 2.2109375 C1.07238281 2.28570312 -0.16382813 2.36046875 -1.4375 2.4375 C-2.65566406 2.50710937 -3.87382813 2.57671875 -5.12890625 2.6484375 C-8.86336277 2.94565028 -8.86336277 2.94565028 -12.28125 4.09375 C-16.57921337 5.25233143 -20.39272058 5.28596981 -24.8125 5.1875 C-25.59173828 5.17847656 -26.37097656 5.16945313 -27.17382812 5.16015625 C-29.07435447 5.13683691 -30.97472008 5.10097586 -32.875 5.0625 C-32.875 4.4025 -32.875 3.7425 -32.875 3.0625 C-31.96790283 2.93403687 -31.96790283 2.93403687 -31.04248047 2.80297852 C-28.27821329 2.41106968 -25.51410597 2.01804417 -22.75 1.625 C-21.79867187 1.49029297 -20.84734375 1.35558594 -19.8671875 1.21679688 C-18.9390625 1.08466797 -18.0109375 0.95253906 -17.0546875 0.81640625 C-16.15089355 0.68886963 -15.24709961 0.56133301 -14.31591797 0.42993164 C-12.38969316 0.13997682 -10.4732888 -0.2151975 -8.5625 -0.59375 C-5.47147389 -0.9891138 -3.04379941 -0.63103159 0 0 Z " fill="#14A057" transform="translate(71.875,70.9375)"/>
<path d="M0 0 C1.98 0 3.96 0 6 0 C6.33 0.66 6.66 1.32 7 2 C5.35 2 3.7 2 2 2 C1.67 2.66 1.34 3.32 1 4 C1.99 4.33 2.98 4.66 4 5 C3.01 5 2.02 5 1 5 C0.67 8.3 0.34 11.6 0 15 C-0.33 15 -0.66 15 -1 15 C-1.125 7.25 -1.125 7.25 0 5 C-0.99 5 -1.98 5 -3 5 C-3 8.3 -3 11.6 -3 15 C-3.66 15 -4.32 15 -5 15 C-5 14.01 -5 13.02 -5 12 C-5.66 12 -6.32 12 -7 12 C-7 11.01 -7 10.02 -7 9 C-8.32 9 -9.64 9 -11 9 C-11 8.01 -11 7.02 -11 6 C-8.5 4.3125 -8.5 4.3125 -6 3 C-5.67 3.33 -5.34 3.66 -5 4 C-4.34 3.34 -3.68 2.68 -3 2 C-2.34 2.33 -1.68 2.66 -1 3 C-0.67 2.01 -0.34 1.02 0 0 Z " fill="#3581BD" transform="translate(111,15)"/>
<path d="M0 0 C1.98 0 3.96 0 6 0 C6.33 0.66 6.66 1.32 7 2 C5.02 2 3.04 2 1 2 C0.67 2.66 0.34 3.32 0 4 C3.96 4 7.92 4 12 4 C12 4.99 12 5.98 12 7 C9.5 8.6875 9.5 8.6875 7 10 C7 9.01 7 8.02 7 7 C6.67 8.32 6.34 9.64 6 11 C6.99 11 7.98 11 9 11 C9 11.66 9 12.32 9 13 C7.35 12.67 5.7 12.34 4 12 C3.67 11.01 3.34 10.02 3 9 C3.66 8.01 4.32 7.02 5 6 C3.68 5.67 2.36 5.34 1 5 C1 7.97 1 10.94 1 14 C0.34 14 -0.32 14 -1 14 C-1 11.03 -1 8.06 -1 5 C-1.66 5 -2.32 5 -3 5 C-3 7.97 -3 10.94 -3 14 C-3.33 14 -3.66 14 -4 14 C-5.25 6.375 -5.25 6.375 -3 3 C-2.34 3.33 -1.68 3.66 -1 4 C-0.67 2.68 -0.34 1.36 0 0 Z " fill="#2CA55F" transform="translate(120,200)"/>
<path d="M0 0 C6.92066116 0.65289256 6.92066116 0.65289256 10 4 C13.10007201 5.20049407 13.10007201 5.20049407 16 6 C14.02 6.99 14.02 6.99 12 8 C11.67 7.34 11.34 6.68 11 6 C10.01 6.33 9.02 6.66 8 7 C7.19787372 8.87387216 7.19787372 8.87387216 6.8125 11.0625 C6.65394531 11.79597656 6.49539062 12.52945312 6.33203125 13.28515625 C6.22246094 13.85105469 6.11289063 14.41695312 6 15 C3.5 12.6875 3.5 12.6875 1 10 C1 9.01 1 8.02 1 7 C1.66 6.67 2.32 6.34 3 6 C1.68 5.01 0.36 4.02 -1 3 C-0.67 2.01 -0.34 1.02 0 0 Z " fill="#84B1D6" transform="translate(113,16)"/>
<path d="M0 0 C1.32 0.66 2.64 1.32 4 2 C3.67 3.32 3.34 4.64 3 6 C2.071875 6.12375 2.071875 6.12375 1.125 6.25 C-1.18346804 6.78810733 -1.18346804 6.78810733 -2 9 C-3 11 -3 11 -4.9375 11.9375 C-7 12 -7 12 -8.75 10.5625 C-9.1625 10.046875 -9.575 9.53125 -10 9 C-8.77946141 5.33838422 -7.63217696 4.83729526 -4.4375 2.8125 C-3.61121094 2.28269531 -2.78492188 1.75289062 -1.93359375 1.20703125 C-1.29550781 0.80871094 -0.65742188 0.41039062 0 0 Z " fill="#2E7DBB" transform="translate(26,196)"/>
<path d="M0 0 C0.99 0 1.98 0 3 0 C3.48580343 7.85382207 3.39988124 15.18290006 -1 22 C-3.140625 23.2734375 -3.140625 23.2734375 -5 24 C-5.33 23.34 -5.66 22.68 -6 22 C-5.2578125 20.16015625 -5.2578125 20.16015625 -4.125 18.0625 C-1.82597577 13.76187776 -0.83868052 10.18397778 -0.4375 5.3125 C-0.35371094 4.31863281 -0.26992187 3.32476562 -0.18359375 2.30078125 C-0.12300781 1.54152344 -0.06242187 0.78226563 0 0 Z " fill="#EA2324" transform="translate(125,130)"/>
<path d="M0 0 C0.66 1.32 1.32 2.64 2 4 C2.391875 3.484375 2.78375 2.96875 3.1875 2.4375 C3.785625 1.963125 4.38375 1.48875 5 1 C7.6875 1.3125 7.6875 1.3125 10 2 C9.67 4.97 9.34 7.94 9 11 C7.35 10.67 5.7 10.34 4 10 C3.67 9.01 3.34 8.02 3 7 C1.68 8.65 0.36 10.3 -1 12 C-0.67 8.04 -0.34 4.08 0 0 Z " fill="#AACAE3" transform="translate(77,231)"/>
<path d="M0 0 C7.44172932 4.22368421 7.44172932 4.22368421 8.6875 8.1875 C8.790625 8.785625 8.89375 9.38375 9 10 C8.01 10 7.02 10 6 10 C6 10.66 6 11.32 6 12 C6.99 12.33 7.98 12.66 9 13 C7.68 13 6.36 13 5 13 C5.33 11.02 5.66 9.04 6 7 C3.36 8.98 0.72 10.96 -2 13 C-2.66 12.34 -3.32 11.68 -4 11 C-3.625 7.375 -3.625 7.375 -3 4 C-1.02 4 0.96 4 3 4 C2.01 3.34 1.02 2.68 0 2 C0 1.34 0 0.68 0 0 Z " fill="#387FBC" transform="translate(165,43)"/>
<path d="M0 0 C4.61513112 1.31860889 8.09897612 3.21355437 12 6 C11.67 6.66 11.34 7.32 11 8 C10.34 7.67 9.68 7.34 9 7 C8.7525 7.7425 8.505 8.485 8.25 9.25 C6.90852699 12.20124062 5.39094474 13.84814974 3 16 C3 15.01 3 14.02 3 13 C2.34 13 1.68 13 1 13 C1 12.34 1 11.68 1 11 C1.66 11 2.32 11 3 11 C2.67 9.35 2.34 7.7 2 6 C2.99 6 3.98 6 5 6 C3.35 4.02 1.7 2.04 0 0 Z " fill="#5997C8" transform="translate(146,30)"/>
<path d="M0 0 C-1.72771364 3.45542728 -5.70298694 3.83452594 -9.20703125 5.03125 C-12.13132798 6.00161243 -12.13132798 6.00161243 -15.375 7.5 C-18 8 -18 8 -20.875 6.125 C-21.57625 5.42375 -22.2775 4.7225 -23 4 C-19.98968256 3.06576355 -19.13349732 2.95550089 -16 4 C-13.16497919 2.84141564 -10.5077991 1.43930091 -7.7890625 0.03125 C-4.66294693 -1.12462467 -3.1415795 -0.95960974 0 0 Z " fill="#0D9E53" transform="translate(115,186)"/>
<path d="M0 0 C0.66 0.66 1.32 1.32 2 2 C1.61121812 5.01305957 0.73543126 6.39685311 -1 9 C-3.31 8.01 -5.62 7.02 -8 6 C-7.34 4.68 -6.68 3.36 -6 2 C-6.66 1.34 -7.32 0.68 -8 0 C-5.09288879 -1.4535556 -3.10402897 -0.71133997 0 0 Z " fill="#5999C9" transform="translate(68,26)"/>
<path d="M0 0 C0.66 0.33 1.32 0.66 2 1 C2 1.99 2 2.98 2 4 C3.0772721 5.65503095 3.0772721 5.65503095 4.5 7.1875 C5.7375 8.5796875 5.7375 8.5796875 7 10 C5.35 9.67 3.7 9.34 2 9 C1.67 9.99 1.34 10.98 1 12 C0.34 12 -0.32 12 -1 12 C-1.12375 11.071875 -1.12375 11.071875 -1.25 10.125 C-1.81258459 7.81562433 -1.81258459 7.81562433 -4.0625 6.75 C-4.701875 6.5025 -5.34125 6.255 -6 6 C-4.02 4.02 -2.04 2.04 0 0 Z " fill="#88B4D7" transform="translate(32,44)"/>
<path d="M0 0 C3 2 3 2 3.6875 4.125 C3.8421875 5.053125 3.8421875 5.053125 4 6 C2.68 5.67 1.36 5.34 0 5 C0 5.66 0 6.32 0 7 C-0.66 7 -1.32 7 -2 7 C-2 7.66 -2 8.32 -2 9 C-1.34 9.66 -0.68 10.32 0 11 C-1.65 11.33 -3.3 11.66 -5 12 C-4.34 10.02 -3.68 8.04 -3 6 C-4.65 7.32 -6.3 8.64 -8 10 C-7.34414811 13.60992379 -7.34414811 13.60992379 -6 17 C-6.99 16.67 -7.98 16.34 -9 16 C-9.9375 12.875 -9.9375 12.875 -10 9 C-7.99085029 6.54374374 -5.54755683 4.86249953 -3 3 C-1.98182276 2.01851383 -0.97562042 1.0237992 0 0 Z " fill="#297ABA" transform="translate(49,30)"/>
<path d="M0 0 C3.07531556 0.33246655 4.61832506 0.63104756 6.875 2.8125 C8.24573172 5.47781168 7.8062762 6.22282642 7 9 C7.99 10.485 7.99 10.485 9 12 C5.78475695 10.59155282 3.67816132 8.89655214 1.25 6.375 C0.63640625 5.74335938 0.0228125 5.11171875 -0.609375 4.4609375 C-1.06828125 3.97882813 -1.5271875 3.49671875 -2 3 C-1.34 2.01 -0.68 1.02 0 0 Z " fill="#7EAED4" transform="translate(168,207)"/>
<path d="M0 0 C0.66 0.33 1.32 0.66 2 1 C2 3.97 2 6.94 2 10 C0 9 0 9 -1 6 C-2.32 6 -3.64 6 -5 6 C-4.01 7.485 -4.01 7.485 -3 9 C-2.34 8.34 -1.68 7.68 -1 7 C-1.33 8.32 -1.66 9.64 -2 11 C-3.9375 10.625 -3.9375 10.625 -6 10 C-7.35439668 7.29120665 -7.06501451 4.99066732 -7 2 C-4.92446352 1.4465236 -3.15634036 1 -1 1 C-0.67 0.67 -0.34 0.34 0 0 Z " fill="#488CC2" transform="translate(121,231)"/>
<path d="M0 0 C2.475 0.99 2.475 0.99 5 2 C4.67 3.65 4.34 5.3 4 7 C3.01 7.33 2.02 7.66 1 8 C0.67 10.31 0.34 12.62 0 15 C-0.33 15 -0.66 15 -1 15 C-1 12.36 -1 9.72 -1 7 C-1.66 7 -2.32 7 -3 7 C-1.125 2.25 -1.125 2.25 0 0 Z " fill="#75A8D1" transform="translate(55,219)"/>
<path d="M0 0 C1.14926266 0.95421808 2.29430541 1.91352045 3.4375 2.875 C4.07558594 3.40867188 4.71367187 3.94234375 5.37109375 4.4921875 C7 6 7 6 8 8 C5 10 5 10 2.4375 9.875 C0 9 0 9 -1.375 7.1875 C-2.09407937 4.67072221 -1.91976123 3.42482506 -1 1 C-0.67 0.67 -0.34 0.34 0 0 Z " fill="#88B5D8" transform="translate(164,210)"/>
<path d="M0 0 C1.32 0 2.64 0 4 0 C4 4.29 4 8.58 4 13 C2.68 13 1.36 13 0 13 C0 8.71 0 4.42 0 0 Z " fill="#F06666" transform="translate(96,90)"/>
<path d="M0 0 C1.31611677 0.95336021 2.62778961 1.91285774 3.9375 2.875 C4.66839844 3.40867187 5.39929688 3.94234375 6.15234375 4.4921875 C8 6 8 6 9 8 C6.03 8.66 3.06 9.32 0 10 C-0.33 8.35 -0.66 6.7 -1 5 C-1.99 5.99 -2.98 6.98 -4 8 C-2.87548273 5.0280615 -1.77706209 2.66559313 0 0 Z " fill="#3F88C1" transform="translate(18,61)"/>
<path d="M0 0 C0.78375 0.185625 1.5675 0.37125 2.375 0.5625 C4.97089775 1.25962266 4.97089775 1.25962266 7 0 C8.66666667 1.66666667 10.33333333 3.33333333 12 5 C11.67 5.33 11.34 5.66 11 6 C12.32 6.99 13.64 7.98 15 9 C14.67 9.99 14.34 10.98 14 12 C13.67 11.01 13.34 10.02 13 9 C12.01 9 11.02 9 10 9 C10 9.66 10 10.32 10 11 C8.68 10.67 7.36 10.34 6 10 C6.875 6.125 6.875 6.125 8 5 C7.34 4.67 6.68 4.34 6 4 C5.34 5.32 4.68 6.64 4 8 C4.0825 7.236875 4.165 6.47375 4.25 5.6875 C4.29166667 2.85416667 4.29166667 2.85416667 2 1.1875 C1.34 0.795625 0.68 0.40375 0 0 Z " fill="#2477B8" transform="translate(132,24)"/>
<path d="M0 0 C4.95 0 9.9 0 15 0 C15 0.33 15 0.66 15 1 C12.36 1.33 9.72 1.66 7 2 C8.52206009 4.62901288 9.84365964 6.84365964 12 9 C4.25 9.125 4.25 9.125 2 8 C2.33 7.34 2.66 6.68 3 6 C3.33 6 3.66 6 4 6 C3.72382467 4.05925139 3.72382467 4.05925139 3 2 C2.01 1.34 1.02 0.68 0 0 Z " fill="#28A45C" transform="translate(67,204)"/>
<path d="M0 0 C0.66 0 1.32 0 2 0 C2.8638129 1.45264038 3.71580454 2.9123163 4.5625 4.375 C5.27599609 5.59316406 5.27599609 5.59316406 6.00390625 6.8359375 C6.33261719 7.55007812 6.66132813 8.26421875 7 9 C6.67 9.66 6.34 10.32 6 11 C5.01 10.67 4.02 10.34 3 10 C0.63477442 10.92203709 -1.70401807 11.91698965 -4 13 C-3.34 11.68 -2.68 10.36 -2 9 C-1.34 9 -0.68 9 0 9 C0 8.34 0 7.68 0 7 C-0.99 7 -1.98 7 -3 7 C-3 6.01 -3 5.02 -3 4 C-1.35 4.33 0.3 4.66 2 5 C1.34 3.35 0.68 1.7 0 0 Z " fill="#2B7CBA" transform="translate(182,64)"/>
<path d="M0 0 C2.5625 1 2.5625 1 4.375 4.5625 C4.766875 5.696875 5.15875 6.83125 5.5625 8 C3.9125 7.67 2.2625 7.34 0.5625 7 C0.2325 7.66 -0.0975 8.32 -0.4375 9 C-1.7575 6.36 -3.0775 3.72 -4.4375 1 C-2.4375 0 -2.4375 0 0 0 Z " fill="#6FA5D0" transform="translate(146.4375,219)"/>
<path d="M0 0 C0 0.66 0 1.32 0 2 C0.66 2.33 1.32 2.66 2 3 C-3.39460953 5.27141454 -8.26157749 5.20413361 -14 5 C-13.01 4.67 -12.02 4.34 -11 4 C-11 3.01 -11 2.02 -11 1 C-9.54182203 0.83197949 -8.0834516 0.66562857 -6.625 0.5 C-5.81289062 0.4071875 -5.00078125 0.314375 -4.1640625 0.21875 C-2 0 -2 0 0 0 Z " fill="#EC4243" transform="translate(106,161)"/>
<path d="M0 0 C2.125 0.375 2.125 0.375 4 1 C3.47731534 3.76276177 2.89130413 6.3260876 2 9 C0.35 8.67 -1.3 8.34 -3 8 C-2.25 2.25 -2.25 2.25 0 0 Z " fill="#669DCC" transform="translate(72,230)"/>
<path d="M0 0 C1.32 0 2.64 0 4 0 C4 0.66 4 1.32 4 2 C4.99 2 5.98 2 7 2 C6.35455571 5.48539917 4.89865603 8.02819057 3 11 C2.34 10.67 1.68 10.34 1 10 C1 9.34 1 8.68 1 8 C0.01 8 -0.98 8 -2 8 C-1.505 7.38125 -1.01 6.7625 -0.5 6.125 C1.19222773 4.16119096 1.19222773 4.16119096 1 2 C0.34 1.67 -0.32 1.34 -1 1 C-0.67 0.67 -0.34 0.34 0 0 Z " fill="#6FA4CF" transform="translate(42,217)"/>
<path d="M0 0 C2.91796875 0.6796875 2.91796875 0.6796875 6.1875 1.875 C7.27417969 2.26429688 8.36085938 2.65359375 9.48046875 3.0546875 C10.31191406 3.36664063 11.14335938 3.67859375 12 4 C12 4.99 12 5.98 12 7 C5.89357521 7.78287497 1.99540421 5.10825151 -3 2 C-2.01 1.34 -1.02 0.68 0 0 Z " fill="#EA2526" transform="translate(83,158)"/>
<path d="M0 0 C1.299375 -0.02126953 1.299375 -0.02126953 2.625 -0.04296875 C5 0.1875 5 0.1875 8 2.1875 C8 2.8475 8 3.5075 8 4.1875 C3.05 4.1875 -1.9 4.1875 -7 4.1875 C-7.33 3.1975 -7.66 2.2075 -8 1.1875 C-5.07345473 0.21198491 -3.05345004 0.02271912 0 0 Z " fill="#EA2021" transform="translate(98,104.8125)"/>
<path d="M0 0 C1.32 0.33 2.64 0.66 4 1 C4 4 4 4 2.390625 5.859375 C1.68421875 6.48328125 0.9778125 7.1071875 0.25 7.75 C-0.44609375 8.38421875 -1.1421875 9.0184375 -1.859375 9.671875 C-4 11 -4 11 -6.265625 10.703125 C-7.12414062 10.35507813 -7.12414062 10.35507813 -8 10 C-8 8.68 -8 7.36 -8 6 C-5.10765685 5.17361624 -3.11257569 5 0 5 C0.66 3.68 1.32 2.36 2 1 C1.34 0.67 0.68 0.34 0 0 Z " fill="#3F87BF" transform="translate(32,209)"/>
<path d="M0 0 C0.12375 0.639375 0.2475 1.27875 0.375 1.9375 C0.684375 2.9584375 0.684375 2.9584375 1 4 C1.66 4.33 2.32 4.66 3 5 C2.34 5.66 1.68 6.32 1 7 C0.60235737 8.98821313 0.26224651 10.98944339 0 13 C-0.66 12.01 -1.32 11.02 -2 10 C-2.66 10.66 -3.32 11.32 -4 12 C-5.125 6.375 -5.125 6.375 -4 3 C-4.99 2.67 -5.98 2.34 -7 2 C-5.68 2 -4.36 2 -3 2 C-2.67 2.99 -2.34 3.98 -2 5 C-1.34 3.35 -0.68 1.7 0 0 Z " fill="#4E90C5" transform="translate(67,225)"/>
<path d="M0 0 C0.66 0.66 1.32 1.32 2 2 C1.67 2.99 1.34 3.98 1 5 C1.66 5 2.32 5 3 5 C3.33 4.34 3.66 3.68 4 3 C4 5.97 4 8.94 4 12 C3.34 12 2.68 12 2 12 C2 11.01 2 10.02 2 9 C1.34 9 0.68 9 0 9 C0 8.01 0 7.02 0 6 C-1.32 6 -2.64 6 -4 6 C-4 5.01 -4 4.02 -4 3 C-2 1.3125 -2 1.3125 0 0 Z " fill="#277CBA" transform="translate(104,18)"/>
<path d="M0 0 C0.99 0.33 1.98 0.66 3 1 C2.814375 2.093125 2.62875 3.18625 2.4375 4.3125 C1.7421932 7.93624133 1.7421932 7.93624133 3 11 C1.125 10.6875 1.125 10.6875 -1 10 C-3 7 -3 7 -2.75 4.4375 C-2 2 -2 2 0 0 Z " fill="#B7D1E6" transform="translate(153,218)"/>
<path d="M0 0 C3.49928164 2.33285443 3.6329098 3.20795069 4.6875 7.125 C4.93886719 8.03507813 5.19023437 8.94515625 5.44921875 9.8828125 C5.72185547 10.93082031 5.72185547 10.93082031 6 12 C5.34 11.67 4.68 11.34 4 11 C3.34 11.66 2.68 12.32 2 13 C-0.44038726 8.11922548 -1.46845421 5.47332932 0 0 Z " fill="#79AAD2" transform="translate(130,226)"/>
<path d="M0 0 C4.875 4.75 4.875 4.75 6 7 C5.01 7 4.02 7 3 7 C3.99 7.99 4.98 8.98 6 10 C5.34 10 4.68 10 4 10 C4 10.99 4 11.98 4 13 C2.0625 12.625 2.0625 12.625 0 12 C-0.33 11.34 -0.66 10.68 -1 10 C0.32 10.33 1.64 10.66 3 11 C1.07423885 8.56070254 -0.80090595 6.19909405 -3 4 C-2.01 2.68 -1.02 1.36 0 0 Z " fill="#4A8CC2" transform="translate(176,198)"/>
<path d="M0 0 C0.99 0.33 1.98 0.66 3 1 C1.22054913 5.04420651 -1.39529673 8.46078487 -4 12 C-4.99 11.67 -5.98 11.34 -7 11 C-4.69 7.37 -2.38 3.74 0 0 Z " fill="#EB2E2F" transform="translate(77,161)"/>
<path d="M0 0 C0.66 0 1.32 0 2 0 C3.28006797 1.78398614 4.47660351 3.62853906 5.625 5.5 C6.57246094 7.03140625 6.57246094 7.03140625 7.5390625 8.59375 C8.02117187 9.3878125 8.50328125 10.181875 9 11 C7.68 11 6.36 11 5 11 C3.296875 9.03125 3.296875 9.03125 1.75 6.5 C1.22921875 5.6646875 0.7084375 4.829375 0.171875 3.96875 C-0.21484375 3.3190625 -0.6015625 2.669375 -1 2 C-0.67 1.34 -0.34 0.68 0 0 Z " fill="#EB2D2E" transform="translate(117,161)"/>
<path d="M0 0 C2.31 0.33 4.62 0.66 7 1 C7 1.33 7 1.66 7 2 C6.030625 2.12375 5.06125 2.2475 4.0625 2.375 C3.051875 2.58125 2.04125 2.7875 1 3 C0.67 3.66 0.34 4.32 0 5 C0.99 5.33 1.98 5.66 3 6 C2.34 6 1.68 6 1 6 C1.33 9.3 1.66 12.6 2 16 C1.34 15.67 0.68 15.34 0 15 C0 12.03 0 9.06 0 6 C-0.99 5.67 -1.98 5.34 -3 5 C-2.01 3.35 -1.02 1.7 0 0 Z " fill="#3381BD" transform="translate(88,14)"/>
<path d="M0 0 C4.571279 0.54855348 8.67435795 1.41744803 13 3 C12.67 3.99 12.34 4.98 12 6 C10.1838018 5.57811541 8.37205927 5.13700835 6.5625 4.6875 C5.55316406 4.44386719 4.54382813 4.20023438 3.50390625 3.94921875 C2.26447266 3.47935547 2.26447266 3.47935547 1 3 C0.67 2.01 0.34 1.02 0 0 Z " fill="#EB2C2D" transform="translate(129,145)"/>
<path d="M0 0 C0.99 0 1.98 0 3 0 C3.05406122 1.93719378 3.09282025 3.87481921 3.125 5.8125 C3.14820313 6.89144531 3.17140625 7.97039062 3.1953125 9.08203125 C3 12 3 12 1 15 C-0.32286246 10.03926578 -0.08893197 5.08888488 0 0 Z " fill="#EA191A" transform="translate(125,130)"/>
<path d="M0 0 C3.96 1.32 7.92 2.64 12 4 C12 4.99 12 5.98 12 7 C10.20620902 6.55005243 8.41501072 6.08975857 6.625 5.625 C5.62726562 5.36976562 4.62953125 5.11453125 3.6015625 4.8515625 C1 4 1 4 -1 2 C-0.67 1.34 -0.34 0.68 0 0 Z " fill="#EB2F30" transform="translate(55,120)"/>
<path d="M0 0 C0 0.66 0 1.32 0 2 C-1.7902061 2.67057887 -3.58221489 3.3363469 -5.375 4 C-6.37273437 4.37125 -7.37046875 4.7425 -8.3984375 5.125 C-11 6 -11 6 -13 6 C-13 5.01 -13 4.02 -13 3 C-11.21189234 2.30329584 -9.41937948 1.61788811 -7.625 0.9375 C-6.62726563 0.55464844 -5.62953125 0.17179687 -4.6015625 -0.22265625 C-2 -1 -2 -1 0 0 Z " fill="#EB3132" transform="translate(142,121)"/>
<path d="M0 0 C4 0 4 0 6.75 2.375 C9 5 9 5 9 7 C8.01 7 7.02 7 6 7 C5.67 7.99 5.34 8.98 5 10 C4.01 9.67 3.02 9.34 2 9 C1.67 9.99 1.34 10.98 1 12 C0.67 11.34 0.34 10.68 0 10 C1.32 8.68 2.64 7.36 4 6 C3.0022242 3.00667261 2.2477975 2.05233685 0 0 Z " fill="#AFCCE3" transform="translate(142,29)"/>
<path d="M0 0 C1.32 0 2.64 0 4 0 C3.67 2.31 3.34 4.62 3 7 C1.68 7.33 0.36 7.66 -1 8 C-1.625 5.6875 -1.625 5.6875 -2 3 C-1.34 2.01 -0.68 1.02 0 0 Z " fill="#5795C7" transform="translate(59,228)"/>
<path d="M0 0 C0.928125 0.103125 1.85625 0.20625 2.8125 0.3125 C2.8125 1.3025 2.8125 2.2925 2.8125 3.3125 C0.3125 5 0.3125 5 -2.1875 6.3125 C-2.1875 5.3225 -2.1875 4.3325 -2.1875 3.3125 C-2.5175 4.6325 -2.8475 5.9525 -3.1875 7.3125 C-2.1975 7.3125 -1.2075 7.3125 -0.1875 7.3125 C-0.1875 7.9725 -0.1875 8.6325 -0.1875 9.3125 C-1.8375 8.9825 -3.4875 8.6525 -5.1875 8.3125 C-6.1875 5.3125 -6.1875 5.3125 -5.125 2.625 C-3.1875 0.3125 -3.1875 0.3125 0 0 Z " fill="#36A967" transform="translate(129.1875,203.6875)"/>
<path d="M0 0 C0.99 0.33 1.98 0.66 3 1 C0.69281189 5.28477792 -1.32966073 8.72291137 -5 12 C-5.33 11.01 -5.66 10.02 -6 9 C-4.78515625 6.73828125 -4.78515625 6.73828125 -3.0625 4.3125 C-2.49660156 3.50425781 -1.93070312 2.69601563 -1.34765625 1.86328125 C-0.90292969 1.24839844 -0.45820312 0.63351563 0 0 Z " fill="#EB2B2C" transform="translate(123,98)"/>
<path d="M0 0 C-0.33 2.97 -0.66 5.94 -1 9 C-3.5 6.6875 -3.5 6.6875 -6 4 C-6 3.01 -6 2.02 -6 1 C-4 0 -4 0 0 0 Z " fill="#4B8FC4" transform="translate(120,22)"/>
<path d="M0 0 C0.66 0 1.32 0 2 0 C2 3.3 2 6.6 2 10 C0 7 0 7 -1 5 C-2.32 5.33 -3.64 5.66 -5 6 C-5 4.68 -5 3.36 -5 2 C-3.68 2 -2.36 2 -1 2 C-0.67 1.34 -0.34 0.68 0 0 Z " fill="#4EB27A" transform="translate(91,205)"/>
<path d="M0 0 C3.27864546 1.09288182 3.78134149 1.66172933 5.6875 4.375 C6.34298828 5.28378906 6.34298828 5.28378906 7.01171875 6.2109375 C8 8 8 8 8 11 C4.52867905 9.59070303 3.11906726 8.09394917 1.25 4.875 C0.60804687 3.78832031 0.60804687 3.78832031 -0.046875 2.6796875 C-0.36140625 2.12539062 -0.6759375 1.57109375 -1 1 C-0.67 0.67 -0.34 0.34 0 0 Z " fill="#EB2B2C" transform="translate(71,98)"/>
<path d="M0 0 C1.98 0.495 1.98 0.495 4 1 C4.66 3.97 5.32 6.94 6 10 C5.01 9.67 4.02 9.34 3 9 C2.01 9.495 2.01 9.495 1 10 C1 9.01 1 8.02 1 7 C0.34 6.67 -0.32 6.34 -1 6 C-0.835 5.195625 -0.67 4.39125 -0.5 3.5625 C0.03191839 1.2715557 0.03191839 1.2715557 0 0 Z " fill="#87B1D5" transform="translate(73,23)"/>
<path d="M0 0 C-0.33 0.99 -0.66 1.98 -1 3 C-3.50390625 3.94921875 -3.50390625 3.94921875 -6.5625 4.6875 C-7.57441406 4.93886719 -8.58632813 5.19023437 -9.62890625 5.44921875 C-10.41136719 5.63097656 -11.19382813 5.81273437 -12 6 C-12 5.01 -12 4.02 -12 3 C-10.75336669 2.49166409 -9.50250613 1.99368855 -8.25 1.5 C-7.55390625 1.2215625 -6.8578125 0.943125 -6.140625 0.65625 C-4 0 -4 0 0 0 Z " fill="#EB2425" transform="translate(67,145)"/>
<path d="M0 0 C0.66 0.99 1.32 1.98 2 3 C-2.455 5.97 -2.455 5.97 -7 9 C-7.33 7.35 -7.66 5.7 -8 4 C-7.236875 3.71125 -6.47375 3.4225 -5.6875 3.125 C-2.84970692 2.03730987 -2.84970692 2.03730987 0 0 Z " fill="#15A157" transform="translate(105,73)"/>
<path d="M0 0 C2.475 0.99 2.475 0.99 5 2 C4.814375 2.78375 4.62875 3.5675 4.4375 4.375 C3.74037734 6.97089775 3.74037734 6.97089775 5 9 C2.97954558 8.39816251 0.97888961 7.72693904 -1 7 C-1.33 6.34 -1.66 5.68 -2 5 C-0.68 4.34 0.64 3.68 2 3 C1.01 3 0.02 3 -1 3 C-0.67 2.01 -0.34 1.02 0 0 Z " fill="#23A35C" transform="translate(97,205)"/>
<path d="M0 0 C0.99 0.33 1.98 0.66 3 1 C2.01 1.66 1.02 2.32 0 3 C0.33 4.98 0.66 6.96 1 9 C1.99 8.67 2.98 8.34 4 8 C4 9.32 4 10.64 4 12 C1.625 11.375 1.625 11.375 -1 10 C-2.1875 6.9375 -2.1875 6.9375 -3 4 C-3.66 3.67 -4.32 3.34 -5 3 C-2.6875 1.4375 -2.6875 1.4375 0 0 Z " fill="#2779B9" transform="translate(57,27)"/>
<path d="M0 0 C1.7290774 -0.02725341 3.45828176 -0.04650987 5.1875 -0.0625 C6.15042969 -0.07410156 7.11335938 -0.08570312 8.10546875 -0.09765625 C10.85576513 -0.00486622 13.32479591 0.37888315 16 1 C12.50430461 3.33046359 11.49326743 3.16043718 7.4375 2.75 C6.46683594 2.66234375 5.49617188 2.5746875 4.49609375 2.484375 C2 2 2 2 0 0 Z " fill="#029A4A" transform="translate(69,70)"/>
<path d="M0 0 C1.32 0 2.64 0 4 0 C4 0.66 4 1.32 4 2 C3.34 2 2.68 2 2 2 C2.66 2.66 3.32 3.32 4 4 C4 7 4 7 2.5 8.6875 C2.005 9.120625 1.51 9.55375 1 10 C1 9.01 1 8.02 1 7 C0.34 7 -0.32 7 -1 7 C-1 6.34 -1 5.68 -1 5 C-0.34 5 0.32 5 1 5 C0.67 3.35 0.34 1.7 0 0 Z " fill="#4289C1" transform="translate(148,36)"/>
<path d="M0 0 C0.66 0 1.32 0 2 0 C4.29612756 9.41002278 4.29612756 9.41002278 4 14 C3.34 14 2.68 14 2 14 C0.25159715 9.08261698 0 5.16541616 0 0 Z " fill="#629AC9" transform="translate(137,226)"/>
<path d="M0 0 C3.7952131 1.49097658 5.61042731 3.75700849 8 7 C6.35 6.67 4.7 6.34 3 6 C2.67 6.99 2.34 7.98 2 9 C1.34 9 0.68 9 0 9 C0 7.35 0 5.7 0 4 C0.99 4 1.98 4 3 4 C2.01 2.68 1.02 1.36 0 0 Z " fill="#1975B7" transform="translate(31,47)"/>
<path d="M0 0 C1.32 0.66 2.64 1.32 4 2 C3.67 3.32 3.34 4.64 3 6 C1.35 6 -0.3 6 -2 6 C-1.125 1.125 -1.125 1.125 0 0 Z " fill="#94BCDB" transform="translate(26,196)"/>
<path d="M0 0 C0.33 0 0.66 0 1 0 C1.2475 0.969375 1.495 1.93875 1.75 2.9375 C2.1625 3.948125 2.575 4.95875 3 6 C5.03243548 6.96877057 5.03243548 6.96877057 7 7 C7 6.34 7 5.68 7 5 C7.66 5 8.32 5 9 5 C9 6.32 9 7.64 9 9 C5.39991481 9.32728047 3.58388508 9.40422813 0.5625 7.3125 C-1 5 -1 5 -0.75 2.25 C-0.5025 1.5075 -0.255 0.765 0 0 Z " fill="#2376B8" transform="translate(13,69)"/>
<path d="M0 0 C1.875 0.1875 1.875 0.1875 4 1 C5.25 3.5625 5.25 3.5625 6 6 C4.35 6.33 2.7 6.66 1 7 C-0.0625 4.625 -0.0625 4.625 -1 2 C-0.67 1.34 -0.34 0.68 0 0 Z " fill="#80AED4" transform="translate(47,37)"/>
<path d="M0 0 C3.96 0 7.92 0 12 0 C11.67 0.66 11.34 1.32 11 2 C7.08234111 2.81309902 3.82092412 3.37553268 0 2 C0 1.34 0 0.68 0 0 Z " fill="#20A562" transform="translate(118,69)"/>
<path d="M0 0 C0.33 0.66 0.66 1.32 1 2 C0.01 2.99 -0.98 3.98 -2 5 C-0.68 5 0.64 5 2 5 C2 6.65 2 8.3 2 10 C1.5875 9.54625 1.175 9.0925 0.75 8.625 C-1.06408095 6.94049626 -2.75285627 6.00734029 -5 5 C-4.1875 3.0625 -4.1875 3.0625 -3 1 C-2.01 0.67 -1.02 0.34 0 0 Z " fill="#297CBA" transform="translate(96,20)"/>
<path d="M0 0 C0.99 0 1.98 0 3 0 C2.6875 2.375 2.6875 2.375 2 5 C1.01 5.66 0.02 6.32 -1 7 C-1.66 6.34 -2.32 5.68 -3 5 C-3 4.01 -3 3.02 -3 2 C-2.01 2 -1.02 2 0 2 C0 1.34 0 0.68 0 0 Z " fill="#7BAAD2" transform="translate(164,49)"/>
<path d="M0 0 C0.99 0.99 1.98 1.98 3 3 C3.66 2.01 4.32 1.02 5 0 C5 2.64 5 5.28 5 8 C4.01 8 3.02 8 2 8 C0.74335022 5.09399739 0 3.20395416 0 0 Z " fill="#5E9BC9" transform="translate(108,233)"/>
<path d="M0 0 C0.33 0.99 0.66 1.98 1 3 C2.65 2.01 4.3 1.02 6 0 C5.67 1.32 5.34 2.64 5 4 C4.34 4 3.68 4 3 4 C2.67 4.66 2.34 5.32 2 6 C0.68 5.67 -0.64 5.34 -2 5 C-1.34 3.35 -0.68 1.7 0 0 Z " fill="#B0DAC0" transform="translate(127,206)"/>
<path d="M0 0 C0.99 0 1.98 0 3 0 C2.01 3.3 1.02 6.6 0 10 C-0.66 10 -1.32 10 -2 10 C-1.54177532 6.53058454 -1.10868317 3.32604951 0 0 Z " fill="#EC393A" transform="translate(86,166)"/>
<path d="M0 0 C1.32 0.33 2.64 0.66 4 1 C3.67 1.66 3.34 2.32 3 3 C4.32 2.67 5.64 2.34 7 2 C6.67 2.99 6.34 3.98 6 5 C4.35 5 2.7 5 1 5 C0.67 3.35 0.34 1.7 0 0 Z " fill="#E0F0E7" transform="translate(93,205)"/>
<path d="M0 0 C2.95183101 2.95183101 3.08663988 5.95511947 4 10 C3.01 10 2.02 10 1 10 C0.63883954 8.5225254 0.28624952 7.04295325 -0.0625 5.5625 C-0.25972656 4.73878906 -0.45695312 3.91507813 -0.66015625 3.06640625 C-0.82837891 2.04353516 -0.82837891 2.04353516 -1 1 C-0.67 0.67 -0.34 0.34 0 0 Z " fill="#EC3536" transform="translate(108,166)"/>
<path d="M0 0 C0.66 1.32 1.32 2.64 2 4 C0.68 4.99 -0.64 5.98 -2 7 C-2.99 6.34 -3.98 5.68 -5 5 C-3.35 3.35 -1.7 1.7 0 0 Z " fill="#EB3132" transform="translate(79,111)"/>
<path d="M0 0 C0.33 0.66 0.66 1.32 1 2 C2.65 1.67 4.3 1.34 6 1 C6 2.32 6 3.64 6 5 C5.34 5.66 4.68 6.32 4 7 C3.67 6.01 3.34 5.02 3 4 C2.01 4.33 1.02 4.66 0 5 C0 3.35 0 1.7 0 0 Z " fill="#1B72B6" transform="translate(123,24)"/>
<path d="M0 0 C0.66 0.33 1.32 0.66 2 1 C2 1.66 2 2.32 2 3 C1.34 3 0.68 3 0 3 C0.66 4.32 1.32 5.64 2 7 C2.66 6.34 3.32 5.68 4 5 C3.67 6.32 3.34 7.64 3 9 C1.68 8.67 0.36 8.34 -1 8 C-1.93065133 5.39417629 -2.14917407 4.35801776 -1.0625 1.75 C-0.711875 1.1725 -0.36125 0.595 0 0 Z " fill="#7DACD3" transform="translate(116,233)"/>
<path d="M0 0 C2.64 0.33 5.28 0.66 8 1 C8 1.66 8 2.32 8 3 C5.03 3 2.06 3 -1 3 C-0.67 2.01 -0.34 1.02 0 0 Z " fill="#D2E9DC" transform="translate(121,201)"/>
<path d="M0 0 C0.99 0.33 1.98 0.66 3 1 C2.67 3.97 2.34 6.94 2 10 C1.34 9.34 0.68 8.68 0 8 C0.33 7.34 0.66 6.68 1 6 C0.01 5.67 -0.98 5.34 -2 5 C-0.68 4.67 0.64 4.34 2 4 C1.34 2.68 0.68 1.36 0 0 Z " fill="#3A84BE" transform="translate(84,232)"/>
<path d="M0 0 C2.94956528 1.36944102 5.52468811 2.87830409 8 5 C8 5.66 8 6.32 8 7 C4.66272214 5.82744291 2.22562513 4.81131596 0 2 C0 1.34 0 0.68 0 0 Z " fill="#EB292A" transform="translate(124,154)"/>
<path d="M0 0 C0 0.66 0 1.32 0 2 C-1.75 3.2890625 -1.75 3.2890625 -4 4.625 C-4.7425 5.07101563 -5.485 5.51703125 -6.25 5.9765625 C-6.8275 6.31429687 -7.405 6.65203125 -8 7 C-8 6.01 -8 5.02 -8 4 C-2.74285714 0 -2.74285714 0 0 0 Z " fill="#EB2526" transform="translate(72,154)"/>
<path d="M0 0 C0.33 0 0.66 0 1 0 C2.125 5.75 2.125 5.75 1 8 C-0.32 7.67 -1.64 7.34 -3 7 C-2.01 4.69 -1.02 2.38 0 0 Z " fill="#EB2F30" transform="translate(125,140)"/>
<path d="M0 0 C-0.33 1.65 -0.66 3.3 -1 5 C-1.33 4.34 -1.66 3.68 -2 3 C-2.99 3.33 -3.98 3.66 -5 4 C-5 3.34 -5 2.68 -5 2 C-5.66 1.34 -6.32 0.68 -7 0 C-4.3333581 -1.33332095 -2.83319697 -0.67102033 0 0 Z " fill="#2077B8" transform="translate(67,26)"/>
<path d="M0 0 C3 4 3 4 2.875 6 C2 8 2 8 -1 12 C-0.67 8.04 -0.34 4.08 0 0 Z " fill="#4289C1" transform="translate(77,231)"/>
<path d="M0 0 C0 0.66 0 1.32 0 2 C-2.8125 2.6875 -2.8125 2.6875 -6 3 C-7.875 1.5625 -7.875 1.5625 -9 0 C-5.62182575 -0.84454356 -3.32534757 -1.10844919 0 0 Z " fill="#27A663" transform="translate(68,186)"/>
<path d="M0 0 C0.66 0.66 1.32 1.32 2 2 C-0.64 3.65 -3.28 5.3 -6 7 C-6 6.01 -6 5.02 -6 4 C-3 1.8125 -3 1.8125 0 0 Z " fill="#EA2021" transform="translate(131,110)"/>
<path d="M0 0 C3.91402949 1.26941497 5.79072873 2.51167694 8 6 C4.06830895 6 2.83572772 4.60580385 0 2 C0 1.34 0 0.68 0 0 Z " fill="#EB2525" transform="translate(64,110)"/>
<path d="M0 0 C0.66 0 1.32 0 2 0 C1.5020163 3.73487777 1.12508244 5.81237635 -1 9 C-1.66 8.67 -2.32 8.34 -3 8 C-2.01 5.36 -1.02 2.72 0 0 Z " fill="#EB2829" transform="translate(110,95)"/>
<path d="M0 0 C0.66 0 1.32 0 2 0 C2.99 2.97 3.98 5.94 5 9 C4.01 8.67 3.02 8.34 2 8 C1.26953125 6.15234375 1.26953125 6.15234375 0.8125 3.9375 C0.65394531 3.20402344 0.49539062 2.47054687 0.33203125 1.71484375 C0.22246094 1.14894531 0.11289063 0.58304687 0 0 Z " fill="#EB292A" transform="translate(84,95)"/>
<path d="M0 0 C0.99 0 1.98 0 3 0 C2.67 3.3 2.34 6.6 2 10 C0 8 0 8 -0.1953125 6.0546875 C-0.13020833 4.03645833 -0.06510417 2.01822917 0 0 Z " fill="#F1F5F9" transform="translate(108,20)"/>
<path d="M0 0 C-0.25 1.875 -0.25 1.875 -1 4 C-3.0625 5.25 -3.0625 5.25 -5 6 C-5 3 -5 3 -3.625 1.3125 C-2 0 -2 0 0 0 Z " fill="#F5F8FB" transform="translate(34,210)"/>
<path d="M0 0 C0.66 0.33 1.32 0.66 2 1 C2 2.32 2 3.64 2 5 C0.35 5 -1.3 5 -3 5 C-2.625 3.0625 -2.625 3.0625 -2 1 C-1.34 0.67 -0.68 0.34 0 0 Z " fill="#099C4D" transform="translate(112,204)"/>
<path d="M0 0 C4.875 4.75 4.875 4.75 6 7 C1.545 6.01 1.545 6.01 -3 5 C-2.01 3.35 -1.02 1.7 0 0 Z " fill="#639ECC" transform="translate(176,198)"/>
<path d="M0 0 C3.96 0 7.92 0 12 0 C12 0.33 12 0.66 12 1 C7.71 1.66 3.42 2.32 -1 3 C-0.67 2.01 -0.34 1.02 0 0 Z " fill="#34AA6C" transform="translate(39,189)"/>
<path d="M0 0 C-0.66 0.66 -1.32 1.32 -2 2 C-4.1640625 1.9765625 -4.1640625 1.9765625 -6.625 1.625 C-7.44226563 1.51414062 -8.25953125 1.40328125 -9.1015625 1.2890625 C-9.72804688 1.19367188 -10.35453125 1.09828125 -11 1 C-7.01647791 -1.30903272 -4.49885947 -0.86516528 0 0 Z " fill="#089B4C" transform="translate(136,71)"/>
<path d="M0 0 C0.99 0 1.98 0 3 0 C2.67 1.65 2.34 3.3 2 5 C1.01 5.33 0.02 5.66 -1 6 C-0.67 4.02 -0.34 2.04 0 0 Z " fill="#F8FAFC" transform="translate(60,228)"/>
<path d="M0 0 C2.475 0.99 2.475 0.99 5 2 C4.67 2.99 4.34 3.98 4 5 C2.68 4.67 1.36 4.34 0 4 C0 2.68 0 1.36 0 0 Z " fill="#91B9DA" transform="translate(24,215)"/>
<path d="M0 0 C0.66 0.33 1.32 0.66 2 1 C1.67 2.32 1.34 3.64 1 5 C-0.32 4.67 -1.64 4.34 -3 4 C-2.67 3.01 -2.34 2.02 -2 1 C-1.34 0.67 -0.68 0.34 0 0 Z " fill="#F9FBFD" transform="translate(21,201)"/>
<path d="M0 0 C-0.33 0.99 -0.66 1.98 -1 3 C-2.98 3 -4.96 3 -7 3 C-6.67 2.01 -6.34 1.02 -6 0 C-3 -1 -3 -1 0 0 Z " fill="#99BDDB" transform="translate(183,71)"/>
<path d="M0 0 C1.32 1.32 2.64 2.64 4 4 C3.67 4.66 3.34 5.32 3 6 C0.525 5.01 0.525 5.01 -2 4 C-2 3.01 -2 2.02 -2 1 C-1.34 0.67 -0.68 0.34 0 0 Z " fill="#E6EEF5" transform="translate(181,64)"/>
<path d="M0 0 C0.33 1.98 0.66 3.96 1 6 C0.34 6 -0.32 6 -1 6 C-1.33 6.66 -1.66 7.32 -2 8 C-2.66 6.02 -3.32 4.04 -4 2 C-1 0 -1 0 0 0 Z " fill="#C7DCEC" transform="translate(55,30)"/>
<path d="M0 0 C2.31 0 4.62 0 7 0 C7 0.66 7 1.32 7 2 C1.25 3 1.25 3 -1 3 C-0.67 2.01 -0.34 1.02 0 0 Z " fill="#AECBE3" transform="translate(125,23)"/>
<path d="M0 0 C1.65 0 3.3 0 5 0 C4.67 1.32 4.34 2.64 4 4 C2.68 4 1.36 4 0 4 C0 2.68 0 1.36 0 0 Z " fill="#ABC7E1" transform="translate(70,235)"/>
<path d="M0 0 C1.65 0 3.3 0 5 0 C5.33 0.66 5.66 1.32 6 2 C5.67 2.66 5.34 3.32 5 4 C4.01 4 3.02 4 2 4 C2 3.34 2 2.68 2 2 C1.34 2 0.68 2 0 2 C0 1.34 0 0.68 0 0 Z " fill="#669DCB" transform="translate(174,57)"/>
<path d="M0 0 C1.98 0 3.96 0 6 0 C4.35830472 2.02054804 2.69088222 4.02043058 1 6 C0.67 6 0.34 6 0 6 C0 4.02 0 2.04 0 0 Z " fill="#F2F6FA" transform="translate(89,20)"/>
</svg>
